<svg width="120" height="24" viewBox="0 0 120 24" fill="none" xmlns="http://www.w3.org/2000/svg">
<path d="M10.7985 14.8166C10.8158 15.2589 10.9138 15.3651 11.3418 15.3781C11.6105 15.3859 11.8797 15.3804 12.1489 15.3801C12.4562 15.3801 12.764 15.3894 13.0713 15.3744C13.3552 15.3608 13.4843 15.2254 13.5085 14.9396C13.5215 14.7869 13.514 14.6321 13.514 14.4777C13.514 12.8228 13.512 11.168 13.5157 9.51203C13.5157 9.1272 13.5279 8.74236 13.5515 8.35724C13.5671 8.02922 13.6534 7.70847 13.8043 7.41694C13.9455 7.15105 14.1536 6.96368 14.4462 6.87332C15.1627 6.6516 15.7588 6.98101 15.9505 7.71055C16.0491 8.08586 16.0638 8.46954 16.0632 8.85582C16.0605 10.742 16.0598 12.6276 16.0612 14.5126C16.0612 14.6474 16.056 14.7822 16.0638 14.9168C16.0825 15.2395 16.199 15.366 16.5313 15.3721C17.127 15.383 17.7227 15.3824 18.3184 15.3703C18.6156 15.3643 18.7337 15.2349 18.7531 14.9456C18.7634 14.7923 18.7574 14.6379 18.7574 14.4837C18.7574 12.8093 18.7574 11.1353 18.7574 9.4618C18.7574 8.99988 18.775 8.53796 18.8438 8.08066C18.8816 7.82949 18.9591 7.59391 19.105 7.38518C19.4249 6.92788 19.981 6.73359 20.5321 6.88343C20.9863 7.0067 21.229 7.33264 21.2815 7.92765C21.3103 8.25302 21.3152 8.58098 21.3155 8.90779C21.3172 10.8132 21.3164 12.718 21.3129 14.6223C21.3129 14.6994 21.31 14.7765 21.3146 14.8533C21.3386 15.2491 21.4481 15.3666 21.8433 15.3729C22.3811 15.3824 22.9193 15.3813 23.4574 15.3729C23.8941 15.3666 24.0051 15.2528 24.0249 14.8333C24.0278 14.7756 24.0249 14.7179 24.0249 14.6601C24.0299 12.2735 24.0348 9.88773 24.0396 7.50269C24.0419 7.0983 24.0024 6.69477 23.9218 6.29852C23.8241 5.80402 23.5743 5.35256 23.2075 5.00746C21.9681 3.82379 19.8158 4.06601 18.8583 5.50084C18.7629 5.64519 18.6793 5.79503 18.5412 6.0231C18.383 5.77049 18.2607 5.5785 18.1414 5.38508C17.181 3.8261 14.769 3.94649 13.8481 5.28952C13.7449 5.43993 13.6996 5.64577 13.4993 5.71997C13.2817 5.56176 13.4348 5.33196 13.3895 5.14026C13.3765 5.08569 13.3895 5.02478 13.3855 4.96704C13.3604 4.60905 13.2465 4.48809 12.8845 4.47856C12.4622 4.4673 12.0394 4.47394 11.6163 4.47481C10.8363 4.48318 10.7985 4.5184 10.7985 5.29154C10.7985 8.39024 10.7985 11.4881 10.7985 14.5851C10.7985 14.6627 10.7959 14.7398 10.7985 14.8166Z" fill="#25D1DA"/>
<path d="M84.1142 6.07884C83.7971 5.07071 83.1146 4.46213 82.0853 4.24647C81.631 4.15091 81.1713 4.14254 80.7095 4.18873C79.6776 4.29324 78.7313 4.64545 77.8441 5.17031C77.679 5.26818 77.5205 5.37702 77.3541 5.4746C77.1235 5.61086 77.0734 5.60076 76.9218 5.40646C76.8984 5.37615 76.878 5.34324 76.8563 5.31148C76.4176 4.66826 75.7988 4.32788 75.0387 4.21443C74.1011 4.07441 73.2038 4.23896 72.3255 4.55884C71.8355 4.73726 71.3801 4.98179 70.9319 5.24508C70.4684 5.51761 70.4655 5.51328 70.3358 5.01788C70.3214 4.96216 70.311 4.90528 70.2952 4.84985C70.2289 4.61658 70.0675 4.50053 69.8311 4.49042C69.6394 4.48263 69.4472 4.48349 69.2546 4.48407C68.496 4.48638 68.4426 4.53892 68.4421 5.30831C68.4405 6.84804 68.4405 8.3868 68.4421 9.92461C68.4421 11.4634 68.4421 13.0021 68.4421 14.5409C68.4403 14.7136 68.4499 14.8863 68.4709 15.0577C68.4942 15.228 68.6133 15.3501 68.7782 15.3553C69.2576 15.3707 69.7372 15.3707 70.217 15.3553C70.4067 15.3496 70.5309 15.211 70.5543 15.0176C70.5705 14.8448 70.5765 14.6713 70.5722 14.4979C70.5722 12.1895 70.5722 9.88121 70.5722 7.57315C70.5722 7.41928 70.5768 7.2654 70.5722 7.11123C70.5667 6.91925 70.6428 6.78991 70.8151 6.69262C71.7205 6.18307 72.6812 5.88426 73.7278 5.91313C74.551 5.93507 74.9981 6.30374 75.2044 7.10228C75.297 7.46114 75.2967 7.82605 75.297 8.19126C75.2987 10.2878 75.2993 12.3844 75.2987 14.4811C75.2987 14.6544 75.2906 14.8276 75.3114 15.0008C75.3342 15.1885 75.4495 15.3423 75.6406 15.3498C76.1193 15.3692 76.5995 15.3686 77.0786 15.3539C77.27 15.3478 77.3936 15.2055 77.4201 15.0167C77.4441 14.8466 77.4392 14.6702 77.4392 14.499C77.4403 12.1716 77.4403 9.84416 77.4392 7.51686C77.4392 7.38203 77.4418 7.2475 77.4392 7.11268C77.4346 6.94379 77.4988 6.81618 77.6479 6.73217C78.5846 6.20327 79.575 5.86607 80.6657 5.91804C81.418 5.95326 81.8691 6.33752 82.0605 7.06475C82.1548 7.42274 82.166 7.7865 82.1663 8.15228C82.1663 10.2488 82.1663 12.3454 82.1663 14.4422C82.1663 14.5961 82.1602 14.7505 82.1703 14.9041C82.1917 15.2269 82.3124 15.355 82.635 15.368C82.9809 15.3822 83.3267 15.362 83.6726 15.3761C84.1231 15.3943 84.3068 15.2474 84.2995 14.7713C84.2975 14.6558 84.2995 14.5403 84.2995 14.4249C84.2995 13.7127 84.2995 13.0006 84.2995 12.2885C84.2995 10.7114 84.2995 9.13415 84.2995 7.5567C84.3021 7.05927 84.2667 6.56184 84.1142 6.07884Z" fill="#25D1DA"/>
<path d="M9.06908 13.2019C8.72176 12.7149 8.53757 12.1892 8.55025 11.5866C8.56409 10.9327 8.55342 10.2785 8.55342 9.62349C8.55342 9.04609 8.56121 8.46869 8.55025 7.89129C8.54391 7.54485 8.51884 7.19986 8.48367 6.85601C8.36837 5.73297 7.75442 4.98236 6.73377 4.54642C6.28987 4.36022 5.82039 4.24234 5.34129 4.1968C4.3901 4.10009 3.45938 4.18699 2.56382 4.53141C1.49733 4.94165 0.757131 5.67552 0.423927 6.78759C0.379251 6.93472 0.349604 7.086 0.335439 7.23912C0.318144 7.43024 0.427388 7.5922 0.617338 7.6176C1.22639 7.69873 1.83745 7.76484 2.44881 7.82662C2.6157 7.84337 2.74512 7.75272 2.81804 7.60028C2.8574 7.51269 2.89016 7.42226 2.91604 7.32977C3.18728 6.4348 4.09062 6.18623 4.75558 6.31788C5.2724 6.42008 5.60848 6.72956 5.71802 7.2651C5.77566 7.55063 5.78518 7.83788 5.7797 8.12629C5.77393 8.43087 5.75549 8.45945 5.46782 8.49871C4.91585 8.57378 4.36156 8.62892 3.81045 8.70889C3.12386 8.80849 2.45025 8.96179 1.83025 9.29062C0.952558 9.756 0.354752 10.4541 0.120414 11.4287C-0.04101 12.0865 -0.0401207 12.7738 0.123007 13.4311C0.382422 14.4705 1.03644 15.1411 2.08303 15.4099C2.67191 15.5609 3.26481 15.5297 3.85686 15.448C4.42036 15.3698 4.92651 15.1428 5.37415 14.7926C5.58571 14.6269 5.78229 14.4425 5.9881 14.2698C6.13222 14.1503 6.20629 14.1543 6.31669 14.3097C6.55189 14.6388 6.78883 14.9656 7.09897 15.23C7.40912 15.4945 7.58667 15.5037 7.90604 15.2338C8.25856 14.9364 8.60041 14.6275 8.94687 14.3218C9.50461 13.8339 9.51326 13.8278 9.06908 13.2019ZM5.68833 11.8421C5.59321 12.3041 5.39836 12.7157 5.06256 13.0547C4.83378 13.2924 4.53108 13.4451 4.20418 13.4877C3.68996 13.557 3.253 13.3145 3.03105 12.8425C2.59033 11.9025 3.01001 10.7829 3.96408 10.3779C4.46619 10.1645 4.99886 10.0935 5.54133 10.0958C5.71427 10.0958 5.77192 10.1605 5.7797 10.3473C5.78662 10.5011 5.7797 10.6553 5.7797 10.8092C5.79146 11.1563 5.76038 11.5035 5.68717 11.843L5.68833 11.8421Z" fill="#25D1DA"/>
<path d="M28.3436 15.5008C28.6125 15.5159 28.8819 15.5159 29.1507 15.5008C29.88 15.465 30.5429 15.2355 31.1194 14.7814C31.3157 14.6272 31.4978 14.4554 31.6875 14.2929C31.8633 14.1419 31.9181 14.1463 32.0576 14.3293C32.1625 14.4667 32.2594 14.6113 32.364 14.7482C32.5274 14.9637 32.7197 15.1556 32.9353 15.3187C33.1414 15.4728 33.3071 15.4751 33.5167 15.3302C33.609 15.2611 33.6974 15.1869 33.7816 15.1079C34.0854 14.8423 34.3869 14.575 34.6927 14.3099C35.2262 13.844 35.2412 13.8157 34.8132 13.2308C34.4324 12.7111 34.2577 12.1447 34.2695 11.5055C34.2814 10.8663 34.2721 10.2352 34.2721 9.6001H34.2707C34.2707 9.00365 34.277 8.4072 34.2681 7.81017C34.2635 7.50299 34.2393 7.19552 34.2105 6.88979C34.0972 5.71594 33.461 4.92664 32.3778 4.52246C30.9078 3.97248 29.4326 4.02763 27.9998 4.66305C27.0754 5.07359 26.4516 5.78234 26.1585 6.76392C26.1128 6.91066 26.0807 7.06133 26.0628 7.214C26.0397 7.4363 26.1493 7.59711 26.3718 7.62713C26.9618 7.70681 27.5536 7.76946 28.1462 7.82922C28.3382 7.84914 28.4797 7.75705 28.5549 7.57574C28.5857 7.50534 28.6116 7.4329 28.6325 7.35893C28.8426 6.56529 29.6292 6.20586 30.3959 6.30518C30.9176 6.3736 31.35 6.69405 31.4439 7.2983C31.4748 7.46843 31.4934 7.64055 31.4996 7.81334C31.5059 8.53855 31.5814 8.45714 30.8801 8.5426C30.2129 8.62401 29.5433 8.68521 28.8855 8.8313C28.4148 8.93552 27.9557 9.0738 27.5308 9.3065C26.6208 9.80508 26.0259 10.5479 25.8103 11.5722C25.6801 12.1766 25.69 12.8029 25.8391 13.4029C26.1455 14.6388 27.0737 15.4197 28.3436 15.5008ZM28.6947 11.4244C28.8003 11.0512 29.0463 10.7336 29.381 10.5384C29.9774 10.1853 30.6354 10.0975 31.3122 10.0993C31.3363 10.0979 31.3604 10.1015 31.3831 10.1098C31.4057 10.1182 31.4264 10.1311 31.4439 10.1478C31.4613 10.1645 31.4751 10.1847 31.4845 10.207C31.4938 10.2292 31.4984 10.2532 31.4981 10.2774C31.5053 10.4492 31.5001 10.6215 31.5001 10.7203C31.5161 11.0893 31.4884 11.4589 31.4177 11.8214C31.3466 12.2189 31.1773 12.5923 30.9251 12.9074C30.7032 13.1817 30.4302 13.38 30.0777 13.46C29.411 13.6113 28.8383 13.281 28.6714 12.6167C28.5706 12.2246 28.5787 11.8123 28.6947 11.4244Z" fill="#25D1DA"/>
<path d="M63.4232 11.1669C63.4232 10.2243 63.4211 9.28195 63.4232 8.33964C63.4293 7.83942 63.3981 7.33944 63.3298 6.84388C63.2877 6.5598 63.2355 6.27226 63.1433 6.00146C62.8403 5.11371 62.2238 4.55796 61.3092 4.34144C61.0092 4.27251 60.701 4.24694 60.3938 4.26551C59.527 4.31084 58.8525 4.69279 58.3787 5.42262C58.2951 5.55138 58.2253 5.68938 58.1432 5.81929C58.106 5.87703 58.0775 5.96653 57.9728 5.92149C57.9074 5.89262 57.9089 5.83142 57.908 5.77887C57.9022 5.5098 57.908 5.24045 57.8988 4.97051C57.8864 4.60704 57.7786 4.49185 57.4088 4.48348C56.8899 4.47222 56.3711 4.48001 55.8523 4.48088C55.7944 4.4798 55.7366 4.48356 55.6793 4.49214C55.4914 4.52476 55.368 4.64659 55.3499 4.83858C55.3355 4.9913 55.3412 5.14604 55.3412 5.3005C55.3412 8.37765 55.3412 11.4549 55.3412 14.5322C55.3412 14.6477 55.3372 14.7632 55.3429 14.8787C55.3611 15.2419 55.4738 15.3695 55.8312 15.3761C56.4077 15.3875 56.9842 15.3875 57.5607 15.3761C57.9091 15.3692 58.029 15.2341 58.0507 14.8743C58.0584 14.7401 58.053 14.605 58.053 14.4702C58.053 12.8352 58.053 11.2004 58.053 9.56574C58.048 9.18108 58.073 8.79663 58.1276 8.41585C58.1717 8.11083 58.2629 7.81454 58.398 7.53763C58.5323 7.25747 58.758 7.03158 59.0379 6.89729C59.463 6.69289 60.1937 6.7463 60.4892 7.42966C60.5922 7.65804 60.6534 7.90308 60.6699 8.15314C60.6872 8.47937 60.7053 8.80617 60.7059 9.13298C60.7094 10.9216 60.7101 12.7102 60.7079 14.4987C60.7079 14.6526 60.701 14.8074 60.7143 14.9607C60.7368 15.2228 60.8584 15.3648 61.1063 15.3709C61.7404 15.3842 62.374 15.3842 63.0069 15.3709C63.2617 15.366 63.3894 15.2266 63.4151 14.9739C63.4244 14.8394 63.4269 14.7045 63.4226 14.5698C63.4233 13.4359 63.4235 12.3017 63.4232 11.1669Z" fill="#25D1DA"/>
<path d="M39.0383 18.3494C38.8887 18.3653 38.7403 18.4187 38.5982 18.4724C38.1658 18.6355 37.7424 18.8151 37.31 18.9741C34.6842 19.9401 31.9825 20.5776 29.1964 20.8564C27.5525 21.0179 25.8987 21.0536 24.2493 20.9633C22.2155 20.858 20.1961 20.561 18.2179 20.0761C15.2373 19.3439 12.3935 18.2573 9.72785 16.7217C9.59529 16.6442 9.45746 16.5761 9.31538 16.5179C9.18106 16.4636 9.02455 16.515 8.95681 16.6224C8.87582 16.7511 8.88994 16.8851 8.98073 16.9977C9.06645 17.1012 9.16096 17.197 9.26321 17.2841C13.9373 21.3781 19.3882 23.4262 24.9431 23.4969C29.0122 23.4888 32.3016 22.8213 35.4532 21.4829C36.6753 20.9633 37.8456 20.3408 38.9328 19.5752C39.108 19.4573 39.2734 19.3254 39.4274 19.1808C39.5715 19.0394 39.6306 18.8552 39.5488 18.6516C39.5074 18.553 39.4354 18.4704 39.3435 18.4159C39.2515 18.3615 39.1445 18.3382 39.0383 18.3494Z" fill="#25D1DA"/>
<path d="M52.943 6.23209C51.3758 3.60492 47.38 3.54718 45.8275 6.33631C45.6782 6.6049 45.5476 6.88348 45.4366 7.17007C45.0988 8.04166 44.9755 8.95337 44.97 9.88385C44.9619 10.3844 45.003 10.8845 45.0928 11.377C45.2329 12.1793 45.4885 12.9383 45.9108 13.6416C47.4258 16.1654 50.9449 16.1919 52.6222 14.0391C53.1082 13.4156 53.4579 12.6968 53.6489 11.9293C53.9659 10.676 53.9628 9.4176 53.6921 8.15742C53.5501 7.47867 53.2969 6.82812 52.943 6.23209ZM50.8884 11.5993C50.829 12.041 50.7209 12.4674 50.4849 12.8499C50.2329 13.2567 49.8715 13.4678 49.3849 13.4626C49.0102 13.4585 48.7191 13.3067 48.4969 13.0125C48.309 12.7636 48.198 12.4775 48.1155 12.1799C47.9812 11.696 47.9267 11.1983 47.9031 10.7003C47.8884 10.3937 47.9002 10.0859 47.9002 9.77876C47.8824 9.20136 47.8878 8.62656 47.9847 8.05551C48.0423 7.71225 48.1288 7.37851 48.2937 7.07105C48.6684 6.37615 49.2388 6.27164 49.8502 6.42436C50.2082 6.51357 50.4425 6.7656 50.5909 7.09761C50.7394 7.42961 50.8235 7.79049 50.8691 8.15223C51.0118 9.29981 51.0438 10.4494 50.8884 11.5993Z" fill="#25D1DA"/>
<path d="M96.0805 9.96387C96.0805 8.42568 96.0805 6.88749 96.0805 5.3493C96.0805 5.19542 96.0857 5.04068 96.0713 4.88738C96.05 4.66566 95.9252 4.51207 95.713 4.50254C95.2533 4.48493 94.7921 4.48753 94.3323 4.50254C94.1306 4.5089 94.0133 4.62928 93.9865 4.8282C93.9648 5.01909 93.9559 5.21121 93.9597 5.40329C93.9581 7.67227 93.9581 9.94116 93.9597 12.21C93.9597 12.3638 93.9559 12.5177 93.9597 12.6719C93.9625 12.839 93.902 12.9724 93.7579 13.0605C92.7862 13.6555 91.7512 14.023 90.5924 13.9286C89.8277 13.8662 89.3631 13.4667 89.1665 12.7207C89.072 12.3641 89.0512 12.0015 89.0512 11.6346C89.0539 9.59636 89.0539 7.55814 89.0512 5.51992C89.0512 5.38539 89.0538 5.25085 89.0512 5.11574C89.0377 4.60965 88.9342 4.50024 88.4459 4.48724C88.1963 4.4806 87.9467 4.48378 87.6965 4.48551C87.0079 4.49071 86.9214 4.56866 86.9206 5.23613C86.9179 7.62059 86.9191 10.0049 86.9243 12.3889C86.9263 12.7159 86.9569 13.042 87.0157 13.3636C87.2463 14.6339 88.0923 15.4402 89.3671 15.6385C89.785 15.7017 90.2092 15.7108 90.6293 15.6654C91.6834 15.558 92.6369 15.1801 93.5284 14.6212C93.687 14.5219 93.8343 14.3146 94.0216 14.3683C94.2332 14.4292 94.1459 14.6983 94.2179 14.866C94.2404 14.918 94.2433 14.9783 94.2594 15.0334C94.3205 15.2419 94.4612 15.3588 94.6768 15.3677C94.9074 15.377 95.138 15.3677 95.3686 15.3773C96.0122 15.4061 96.0892 15.217 96.0848 14.6356C96.073 13.0789 96.0805 11.5214 96.0805 9.96387Z" fill="#25D1DA"/>
<path d="M43.6665 12.591C43.3484 12.4119 43.013 12.2653 42.6655 12.1536C41.9855 11.9258 41.2834 11.8256 40.5706 11.804C40.1849 11.7921 40.1056 11.6885 40.3299 11.3741C40.4083 11.2647 40.4826 11.1527 40.5605 11.0421C41.5241 9.6523 42.4822 8.25846 43.455 6.87502C43.7305 6.48267 43.9066 6.0785 43.8536 5.58915C43.8386 5.41626 43.8386 5.24238 43.8536 5.06949C43.8824 4.61566 43.7147 4.42598 43.2515 4.44908C43.1362 4.45485 43.0209 4.44908 42.9056 4.44908H40.2541C39.3317 4.44908 38.41 4.44908 37.489 4.44908C37.3547 4.44908 37.2198 4.44388 37.0855 4.45398C36.7854 4.47737 36.6707 4.5891 36.6424 4.87751C36.6349 4.95372 36.6384 5.03109 36.6381 5.10847C36.6381 5.39717 36.6355 5.68586 36.6381 5.97456C36.6447 6.58372 36.7174 6.65243 37.3495 6.65878C37.4455 6.65878 37.5415 6.65878 37.6377 6.65878C38.3103 6.65878 38.9823 6.65878 39.6537 6.65878C39.788 6.65878 39.9226 6.65878 40.0572 6.66773C40.2028 6.67784 40.2662 6.78321 40.1944 6.89869C40.0938 7.06209 39.9849 7.22059 39.8759 7.3788C38.8071 8.92969 37.7429 10.4832 36.6655 12.0269C36.4023 12.4048 36.2643 12.8063 36.2692 13.2657C36.2735 13.6886 36.2663 14.1118 36.2723 14.5359C36.2724 14.6516 36.2907 14.7664 36.3265 14.8763C36.3888 15.055 36.5672 15.1361 36.7451 15.0729C36.871 15.0282 36.9903 14.9641 37.1126 14.9084C38.5001 14.2761 39.9459 14.1078 41.4451 14.3624C42.1467 14.4838 42.8265 14.7081 43.4628 15.0282C43.7256 15.159 44.0147 15.077 44.0291 14.7037C44.0493 14.1858 44.0381 13.6661 44.0257 13.1476C44.0182 12.899 43.8824 12.7157 43.6665 12.591Z" fill="#25D1DA"/>
<path d="M104.783 10.1238C104.376 9.82697 103.929 9.60871 103.464 9.42394C102.804 9.1618 102.143 8.90428 101.483 8.64215C101.195 8.53126 100.923 8.38584 100.671 8.2091C100.371 7.99575 100.213 7.70012 100.188 7.33145C100.145 6.70844 100.429 6.25518 101.015 6.02653C101.361 5.89171 101.722 5.85331 102.088 5.84754C102.799 5.83826 103.509 5.92676 104.196 6.11054C104.381 6.15991 104.565 6.21534 104.753 6.25489C105.09 6.32735 105.235 6.22602 105.255 5.89979C105.268 5.68904 105.26 5.47713 105.255 5.26465C105.251 4.98317 105.11 4.79552 104.852 4.69072C104.781 4.66185 104.71 4.63298 104.637 4.60642C103.714 4.2704 102.734 4.12249 101.753 4.17135C101.016 4.20772 100.308 4.36911 99.6672 4.75798C98.9466 5.19594 98.4235 5.79268 98.269 6.64233C98.0338 7.93628 98.4168 9.11042 99.7055 9.88759C100.069 10.1067 100.461 10.2629 100.856 10.4136C101.484 10.6526 102.11 10.8944 102.736 11.1388C102.987 11.236 103.223 11.3688 103.436 11.5332C103.694 11.7315 103.83 11.9951 103.864 12.3196C103.939 13.0379 103.555 13.6286 102.838 13.8624C102.377 14.0131 101.897 14.0437 101.415 14.0125C100.608 13.9603 99.8105 13.8587 99.036 13.6141C98.8538 13.5541 98.6687 13.5033 98.4814 13.462C98.2759 13.4198 98.1286 13.5154 98.1003 13.7103C98.0593 14.0152 98.0587 14.3243 98.0986 14.6295C98.1081 14.7066 98.136 14.7802 98.18 14.8441C98.2241 14.9081 98.2828 14.9604 98.3514 14.9967C98.4859 15.0701 98.6255 15.1337 98.7691 15.187C99.675 15.5412 100.622 15.6691 101.62 15.6977C102.38 15.6951 103.158 15.6111 103.895 15.2894C105.238 14.7025 105.931 13.5905 105.851 12.1351C105.807 11.3034 105.469 10.6229 104.783 10.1238Z" fill="#25D1DA"/>
<path d="M119.991 13.8238C119.976 13.5882 119.831 13.4773 119.603 13.512C119.433 13.5385 119.266 13.5862 119.098 13.6292C118.41 13.8087 117.696 13.8718 116.987 13.816C115.473 13.6939 114.589 12.91 114.319 11.4166C114.139 10.4302 114.141 9.41914 114.325 8.43348C114.6 6.95101 115.445 6.18595 116.941 6.04796C117.649 5.97816 118.365 6.03267 119.054 6.20905C119.184 6.24283 119.314 6.28324 119.445 6.30374C119.763 6.35282 119.885 6.26506 119.907 5.9573C119.924 5.72808 119.914 5.49538 119.915 5.26587C119.916 4.95811 119.765 4.75891 119.479 4.6596C119.316 4.60186 119.153 4.54412 118.987 4.49764C118.06 4.23428 117.087 4.17917 116.137 4.33626C114.21 4.64786 112.939 5.72971 112.325 7.58181C112.069 8.35697 111.986 9.15696 112.005 9.97311C111.982 10.9206 112.101 11.8497 112.45 12.7403C112.959 14.0368 113.864 14.9249 115.199 15.3322C116.518 15.7364 117.847 15.7145 119.168 15.3126C119.35 15.253 119.527 15.1789 119.698 15.0912C119.786 15.0515 119.861 14.9869 119.914 14.9051C119.966 14.8233 119.994 14.7279 119.993 14.6307C119.999 14.3616 120.006 14.0917 119.991 13.8238Z" fill="#25D1DA"/>
<path d="M109.786 4.87749C109.759 4.65519 109.634 4.50824 109.419 4.50218C108.957 4.48688 108.496 4.48948 108.038 4.50565C107.848 4.51229 107.718 4.65202 107.692 4.83794C107.676 4.99087 107.67 5.1447 107.674 5.29841C107.674 6.85604 107.674 8.41348 107.674 9.97072V14.4692C107.674 14.6038 107.669 14.7389 107.677 14.8734C107.699 15.2279 107.821 15.357 108.172 15.3729C108.44 15.385 108.709 15.3775 108.979 15.3766C109.758 15.3749 109.797 15.3391 109.797 14.5683C109.798 11.4726 109.798 8.37691 109.797 5.28109C109.802 5.14646 109.798 5.01168 109.786 4.87749Z" fill="#25D1DA"/>
<path d="M41.686 15.9688C40.7348 15.7598 39.7799 15.7771 38.8241 15.9313C38.1363 16.0421 37.4786 16.2459 36.8675 16.5857C36.7168 16.6693 36.5723 16.7637 36.4351 16.8681C36.3279 16.9498 36.2365 17.0531 36.2723 17.2105C36.3011 17.3346 36.4204 17.3857 36.6591 17.3678C36.7548 17.3606 36.8493 17.3418 36.945 17.334C37.6143 17.2783 38.2799 17.1732 38.9541 17.1926C39.2423 17.1926 39.5305 17.179 39.8173 17.1972C40.0279 17.2108 40.2363 17.2471 40.4391 17.3055C40.8112 17.4126 40.9423 17.5855 40.9516 17.9721C40.9562 18.1642 40.94 18.3563 40.9031 18.5449C40.8397 18.8647 40.7726 19.1866 40.6708 19.4958C40.4604 20.1347 40.2255 20.7661 40.0024 21.4012C39.9517 21.5456 39.9009 21.6899 39.8632 21.8389C39.8539 21.8766 39.8552 21.9162 39.8669 21.9533C39.8787 21.9903 39.9004 22.0234 39.9297 22.0488C40.0122 22.125 40.1053 22.1166 40.1961 22.0728C40.463 21.9443 40.6573 21.7263 40.8394 21.5046C41.8941 20.2138 42.4714 18.7302 42.5542 17.0653C42.5913 16.2875 42.4576 16.1385 41.686 15.9688Z" fill="#25D1DA"/>
<path d="M108.757 0.00225621C107.928 -0.0430696 107.27 0.598132 107.454 1.6005C107.552 2.13517 107.923 2.47583 108.46 2.56475C109.093 2.66926 109.642 2.44927 109.909 1.98418C109.928 1.95105 109.945 1.91672 109.96 1.8814C110.317 1.04042 109.891 -0.0367182 108.757 0.00225621Z" fill="#25D1DA"/>
</svg>
