<svg width="119" height="29" viewBox="0 0 119 29" fill="none" xmlns="http://www.w3.org/2000/svg">
<path d="M49.3916 28.6121V9.39502H49.2492L41.5624 28.6121H38.5731L30.8862 9.39502H30.7439V28.6121H27.1852V2.56228H31.7403L39.9965 23.3452H40.1389L48.3951 2.56228H53.0926V28.6121H49.3916ZM73.1638 28.6121H69.4627V25.3381H69.3204C68.324 27.6157 66.3311 28.8968 63.4841 28.8968C59.356 28.8968 56.9361 26.1922 56.9361 21.7794V9.53737H60.7795V21.0676C60.7795 23.9146 62.203 25.4804 64.7652 25.4804C67.6122 25.4804 69.178 23.4875 69.178 20.4982V9.53737H73.0215L73.1638 28.6121ZM83.6976 9.25267C88.1104 9.25267 90.8151 11.6726 90.9574 15.2313H87.3987C87.114 13.3808 85.8328 12.242 83.6976 12.242C81.5624 12.242 80.1389 13.2384 80.1389 14.8043C80.1389 15.9431 80.993 16.7972 82.9859 17.2242L85.9752 17.9359C89.8186 18.79 91.2421 20.3559 91.2421 23.0605C91.2421 26.4769 88.1104 28.8968 83.6976 28.8968C79.0001 28.8968 76.1531 26.6192 75.8684 22.9182H79.7119C79.9966 24.911 81.42 25.9075 83.6976 25.9075C85.9752 25.9075 87.3987 24.911 87.3987 23.3452C87.3987 22.0641 86.6869 21.3523 84.6941 20.9253L81.7047 20.2135C78.146 19.3594 76.4378 17.6512 76.4378 14.8043C76.4378 11.5303 79.2848 9.25267 83.6976 9.25267ZM94.0891 4.55516C94.0891 3.27402 95.0855 2.27758 96.3667 2.27758C97.6478 2.27758 98.6442 3.27402 98.6442 4.55516C98.6442 5.8363 97.6478 6.83274 96.3667 6.83274C95.0855 6.83274 94.0891 5.8363 94.0891 4.55516ZM94.3738 9.53737H98.2172V28.6121H94.3738V9.53737ZM114.445 16.0854C114.018 14.0925 112.594 12.3843 110.032 12.3843C107.043 12.3843 105.05 14.9466 105.05 18.9324C105.05 23.0605 107.043 25.4804 110.032 25.4804C112.452 25.4804 113.876 24.1993 114.445 21.9217H118.146C117.719 25.9075 114.587 28.7545 110.032 28.7545C104.623 28.7545 101.207 25.0534 101.207 18.9324C101.207 12.9537 104.623 9.11032 110.032 9.11032C114.872 9.11032 117.719 12.242 118.146 15.9431L114.445 16.0854ZM15.3702 5.12456C14.3738 6.26335 12.8079 7.25979 11.2421 7.11744C10.9574 5.40925 11.8115 3.70107 12.6656 2.70463C13.662 1.42349 15.3702 0.569397 16.7937 0.569397C16.9361 2.13523 16.3667 3.84342 15.3702 5.12456ZM16.7937 7.40214C17.6478 7.40214 20.2101 7.68683 21.9183 10.2491C21.7759 10.3915 18.9289 12.0996 18.9289 15.6584C18.9289 19.9288 22.63 21.3523 22.63 21.3523C22.63 21.4947 22.0606 23.3452 20.7795 25.3381C19.6407 27.0463 18.3595 28.7545 16.509 28.7545C14.6585 28.7545 14.0891 27.6157 11.9538 27.6157C9.81861 27.6157 9.10687 28.7545 7.39868 28.7545C5.54815 28.7545 4.12466 26.9039 2.98587 25.1957C0.565943 21.637 -1.28459 15.2313 1.27769 10.9609C2.41648 8.82562 4.69406 7.40214 6.97164 7.40214C8.82217 7.40214 10.5304 8.68328 11.5268 8.68328C12.5232 8.68328 14.5161 7.25979 16.7937 7.40214Z" fill="white"/>
</svg>
