<svg width="120" height="34" viewBox="0 0 120 34" fill="none" xmlns="http://www.w3.org/2000/svg">
<path fill-rule="evenodd" clip-rule="evenodd" d="M42.8818 8.29968H49.5249C53.6381 8.29968 56.5466 11.0133 56.5466 14.8703C56.5466 18.7273 53.6381 21.4409 49.5249 21.4409H42.8818V8.29968ZM48.0449 17.8911H49.2496C50.5403 17.8911 51.2287 17.0378 51.2287 14.8703C51.2287 12.7029 50.5403 11.8495 49.2496 11.8495H48.0449V17.8911ZM68.2493 21.4409H57.3381V8.29968H68.2493V11.8495H62.4838V13.3684H67.905V16.2697H62.4838V17.8911H68.2493V21.4409ZM80.3995 21.4409H69.4884V8.29968H80.3995V11.8495H74.6341V13.3684H80.0554V16.2697H74.6341V17.8911H80.3995V21.4409ZM120 21.4409C119.256 19.4315 118.216 17.2874 116.818 14.8842C118.454 14.4083 119.432 13.3855 119.432 11.8154C119.432 9.42607 117.212 8.29968 113.701 8.29968H106.473V21.4409H111.636V16.0051C112.783 17.9209 113.628 19.7288 114.183 21.4409H120ZM111.636 14.1705V11.8495H113.426C114.183 11.8495 114.613 12.2592 114.613 13.0101C114.613 13.761 114.183 14.1705 113.426 14.1705H111.636ZM105.234 21.4409H94.3225V8.29968H105.234V11.8495H99.4684V13.3684H104.89V16.2697H99.4684V17.8911H105.234V21.4409ZM81.6388 11.8495H86.9661C84.7559 13.6429 82.9368 15.6742 81.5355 17.8911V21.4409H93.2555V17.8911H87.3976C88.74 15.9544 90.6157 14.0259 93.2555 11.8495V8.29968H81.6388V11.8495Z" fill="white"/>
<path fill-rule="evenodd" clip-rule="evenodd" d="M28.134 5.11776C28.4444 3.31893 28.8998 2.18776 29.4043 2.18561H29.4053C30.346 2.18885 31.1086 6.11171 31.1086 10.955C31.1086 15.7984 30.3449 19.7245 29.4032 19.7245C29.0171 19.7245 28.6609 19.0578 28.3741 17.9407C27.9208 22.0301 26.9802 24.8412 25.8912 24.8412C25.0487 24.8412 24.2925 23.1525 23.7849 20.4894C23.4383 25.5542 22.5659 29.1476 21.5463 29.1476C20.9064 29.1476 20.323 27.7236 19.8911 25.4051C19.3718 30.1912 18.1719 33.5447 16.7727 33.5447C15.3735 33.5447 14.1714 30.1922 13.6543 25.4051C13.2255 27.7236 12.6421 29.1476 11.999 29.1476C10.9795 29.1476 10.1092 25.5542 9.76045 20.4894C9.2528 23.1525 8.49879 24.8412 7.65412 24.8412C6.5663 24.8412 5.62458 22.031 5.17132 17.9407C4.88656 19.0611 4.52822 19.7245 4.14215 19.7245C3.20044 19.7245 2.43682 15.7984 2.43682 10.955C2.43682 6.11171 3.20044 2.18561 4.14215 2.18561C4.64766 2.18561 5.09986 3.32 5.41341 5.11776C5.91573 2.01599 6.7316 0 7.65412 0C8.74942 0 9.6986 2.85112 10.1476 6.99114C10.587 3.97796 11.2535 2.05704 12.0001 2.05704C13.0463 2.05704 13.9357 5.83513 14.2653 11.1052C14.8849 8.4032 15.7819 6.70808 16.7749 6.70808C17.7677 6.70808 18.6647 8.40427 19.2832 11.1052C19.6139 5.83513 20.5022 2.05704 21.5485 2.05704C22.2939 2.05704 22.9594 3.97796 23.401 6.99114C23.8489 2.85112 24.7981 0 25.8934 0C26.8127 0 27.6317 2.01707 28.134 5.11776ZM0 10.0925C0 7.92744 0.432998 6.17183 0.967313 6.17183C1.50163 6.17183 1.93463 7.92744 1.93463 10.0925C1.93463 12.2576 1.50163 14.0133 0.967313 14.0133C0.432998 14.0133 0 12.2576 0 10.0925ZM31.61 10.0925C31.61 7.92744 32.043 6.17183 32.5774 6.17183C33.1116 6.17183 33.5447 7.92744 33.5447 10.0925C33.5447 12.2576 33.1116 14.0133 32.5774 14.0133C32.043 14.0133 31.61 12.2576 31.61 10.0925Z" fill="#A038FF"/>
</svg>
