<svg width="120" height="38" viewBox="0 0 120 38" fill="none" xmlns="http://www.w3.org/2000/svg">
<path d="M18.6692 0C8.35877 0 0 8.32772 0 18.6001C0 28.873 8.35877 37.2 18.6692 37.2C28.9808 37.2 37.3386 28.873 37.3386 18.6001C37.3386 8.32842 28.981 0 18.6692 0ZM27.2309 26.8267C27.1512 26.9568 27.0466 27.0699 26.923 27.1597C26.7994 27.2494 26.6592 27.314 26.5105 27.3497C26.3618 27.3854 26.2075 27.3915 26.0565 27.3677C25.9054 27.3439 25.7605 27.2907 25.6301 27.2111C21.2468 24.5434 15.7287 23.9394 9.23017 25.4186C8.92927 25.4868 8.6135 25.4332 8.35226 25.2695C8.09103 25.1058 7.90572 24.8455 7.83705 24.5458C7.80282 24.3974 7.79832 24.2437 7.8238 24.0935C7.84929 23.9434 7.90425 23.7997 7.98554 23.6708C8.06684 23.5418 8.17287 23.4301 8.29756 23.342C8.42225 23.254 8.56316 23.1913 8.7122 23.1576C15.8239 21.5386 21.9239 22.2357 26.8451 25.2321C26.9756 25.3115 27.0891 25.4158 27.1791 25.539C27.2691 25.6621 27.3339 25.8018 27.3697 25.9499C27.4055 26.098 27.4116 26.2517 27.3878 26.4022C27.3639 26.5527 27.3108 26.6968 27.2309 26.8267ZM29.5158 21.7623C29.0942 22.4446 28.1982 22.6602 27.5136 22.2403C22.4956 19.1673 14.8458 18.2772 8.91025 20.0724C8.54077 20.1838 8.14202 20.1447 7.80149 19.9635C7.46096 19.7824 7.20646 19.474 7.09384 19.1061C6.98247 18.7381 7.02208 18.341 7.20401 18.002C7.38593 17.663 7.69533 17.4097 8.06439 17.2976C14.8446 15.2478 23.2735 16.2407 29.0363 19.7688C29.7207 20.1887 29.9372 21.0814 29.5158 21.7623ZM29.7118 16.4885C23.6954 12.9277 13.7677 12.6003 8.02291 14.3376C7.1004 14.6164 6.12493 14.0975 5.84556 13.1784C5.71115 12.7369 5.75823 12.2603 5.97644 11.8533C6.19465 11.4463 6.56614 11.1424 7.00923 11.0082C13.6039 9.01354 24.5668 9.39883 31.4942 13.4963C31.6916 13.6126 31.8641 13.7667 32.0017 13.9495C32.1393 14.1324 32.2393 14.3405 32.296 14.562C32.3528 14.7834 32.3651 15.0138 32.3323 15.24C32.2995 15.4662 32.2223 15.6838 32.105 15.8802C31.6147 16.7068 30.5389 16.9793 29.7118 16.4885ZM50.7924 17.1708C47.5688 16.4049 46.996 15.8676 46.996 14.7381C46.996 13.6709 48.0036 12.9529 49.5038 12.9529C50.9574 12.9529 52.3977 13.4984 53.9092 14.6208C53.9537 14.6547 54.0116 14.6682 54.0674 14.6594C54.0954 14.6554 54.1224 14.6457 54.1466 14.631C54.1707 14.6163 54.1917 14.5967 54.208 14.5737L55.7818 12.3633C55.8129 12.3195 55.8261 12.2655 55.8187 12.2123C55.8112 12.1592 55.7837 12.1109 55.7417 12.0772C53.9427 10.6395 51.9184 9.94058 49.5507 9.94058C46.0707 9.94058 43.6386 12.0214 43.6386 14.9989C43.6386 18.1917 45.7363 19.3224 49.3613 20.195C52.4446 20.9028 52.966 21.4957 52.966 22.5558C52.966 23.7308 51.9137 24.4615 50.2196 24.4615C48.3381 24.4615 46.802 23.8287 45.0854 22.3491C45.0426 22.3132 44.9876 22.2949 44.9316 22.2982C44.9038 22.3001 44.8766 22.3076 44.8517 22.3201C44.8267 22.3327 44.8046 22.3501 44.7866 22.3713L43.021 24.4636C42.9856 24.5055 42.9679 24.5596 42.9716 24.6143C42.9754 24.669 43.0003 24.7201 43.0412 24.7569C45.0385 26.5339 47.4952 27.4712 50.1481 27.4712C53.8981 27.4712 56.3214 25.4299 56.3214 22.2693C56.3279 19.6023 54.7253 18.1254 50.7992 17.1738L50.7924 17.1708ZM64.8062 14.0034C63.1811 14.0034 61.8479 14.6414 60.7466 15.9486V14.4775C60.7466 14.3612 60.6528 14.2666 60.5371 14.2666H57.65C57.5942 14.2669 57.5408 14.2893 57.5015 14.3288C57.4623 14.3682 57.4403 14.4216 57.4405 14.4772V30.8251C57.4405 30.9405 57.5343 31.036 57.65 31.036H60.5371C60.5929 31.0356 60.6462 31.0131 60.6855 30.9736C60.7248 30.9341 60.7467 30.8807 60.7466 30.8251V25.6652C61.8479 26.8935 63.1811 27.4955 64.806 27.4955C67.8271 27.4955 70.8857 25.1791 70.8857 20.7503C70.8901 16.3206 67.8313 14.0032 64.8083 14.0032L64.8062 14.0034ZM67.5283 20.7503C67.5283 23.0044 66.1349 24.5792 64.1373 24.5792C62.1643 24.5792 60.6751 22.9334 60.6751 20.7503C60.6751 18.567 62.1643 16.9214 64.1373 16.9214C66.1014 16.9214 67.5283 18.5312 67.5283 20.7503ZM78.7218 14.0034C74.8316 14.0034 71.784 16.9877 71.784 20.7986C71.784 24.5682 74.8115 27.52 78.6749 27.52C82.5784 27.52 85.6349 24.546 85.6349 20.7503C85.6349 16.9674 82.5986 14.0034 78.7218 14.0034ZM78.7218 24.6014C76.653 24.6014 75.0925 22.9444 75.0925 20.7491C75.0925 18.5438 76.5995 16.9433 78.6749 16.9433C80.7571 16.9433 82.3265 18.5996 82.3265 20.7972C82.3265 23.0023 80.8105 24.6014 78.7218 24.6014ZM93.9414 14.2666H90.7647V11.0311C90.7647 10.915 90.671 10.8204 90.5552 10.8204H87.6681C87.6121 10.8206 87.5583 10.8428 87.5186 10.8822C87.4789 10.9217 87.4565 10.9752 87.4563 11.0311V14.2664H86.0697C86.0139 14.2667 85.9605 14.289 85.9212 14.3285C85.8819 14.368 85.86 14.4214 85.8602 14.477V16.9485C85.86 17.0041 85.8819 17.0575 85.9212 17.0971C85.9605 17.1366 86.0139 17.159 86.0697 17.1593H87.4563V23.5552C87.4563 26.1383 88.7472 27.4488 91.2953 27.4488C92.3296 27.4488 93.1879 27.2354 93.9972 26.7779C94.0299 26.76 94.0572 26.7337 94.076 26.7016C94.0949 26.6695 94.1047 26.6329 94.1043 26.5958V24.2413C94.1041 24.2056 94.0949 24.1706 94.0773 24.1396C94.0597 24.1085 94.0345 24.0824 94.004 24.0638C93.9736 24.0444 93.9386 24.0333 93.9026 24.0317C93.8665 24.0301 93.8307 24.038 93.7987 24.0547C93.2437 24.3326 92.7065 24.4612 92.1044 24.4612C91.1793 24.4612 90.7647 24.0414 90.7647 23.1041V17.1607H93.9414C93.9973 17.1604 94.0507 17.1381 94.09 17.0985C94.1293 17.059 94.1512 17.0055 94.151 16.9499V14.4784C94.1519 14.4508 94.1472 14.4234 94.1372 14.3976C94.1272 14.3719 94.1121 14.3485 94.0927 14.3288C94.0733 14.3091 94.0501 14.2935 94.0245 14.2829C93.9989 14.2724 93.9715 14.2672 93.9438 14.2675L93.9414 14.2666ZM105.008 14.2792V13.8818C105.008 12.7128 105.458 12.1916 106.466 12.1916C107.068 12.1916 107.552 12.3107 108.093 12.4905C108.125 12.5011 108.159 12.504 108.192 12.499C108.225 12.4939 108.257 12.4811 108.284 12.4614C108.311 12.4418 108.333 12.4161 108.348 12.3863C108.363 12.3565 108.37 12.3235 108.37 12.2902L108.37 9.86702C108.37 9.82176 108.356 9.77754 108.329 9.74109C108.302 9.70464 108.264 9.67794 108.221 9.66503C107.65 9.49551 106.919 9.32177 105.822 9.32177C103.158 9.32177 101.746 10.8174 101.746 13.6455V14.254H100.36C100.304 14.2541 100.25 14.2763 100.21 14.3158C100.171 14.3553 100.148 14.4088 100.148 14.4646V16.9487C100.148 17.0648 100.244 17.1596 100.36 17.1596H101.746V27.0224C101.746 27.1401 101.842 27.2335 101.958 27.2335H104.843C104.961 27.2335 105.055 27.1401 105.055 27.0224V17.16H107.75L111.879 27.0222C111.411 28.0573 110.949 28.2637 110.32 28.2637C109.812 28.2637 109.275 28.1129 108.729 27.8131C108.677 27.787 108.617 27.7814 108.562 27.7974C108.534 27.8067 108.509 27.8215 108.487 27.841C108.466 27.8605 108.448 27.8842 108.437 27.9107L107.458 30.0496C107.436 30.0982 107.432 30.1535 107.449 30.2043C107.466 30.2551 107.502 30.2975 107.549 30.3228C108.57 30.8737 109.491 31.1091 110.63 31.1091C112.762 31.1091 113.941 30.1185 114.978 27.4577L119.985 14.5669C119.998 14.535 120.003 14.5004 119.999 14.4662C119.995 14.432 119.982 14.3994 119.962 14.3712C119.944 14.343 119.918 14.3199 119.888 14.3039C119.858 14.2879 119.825 14.2796 119.791 14.2797H116.786C116.741 14.2794 116.698 14.2929 116.662 14.3183C116.627 14.3436 116.599 14.3795 116.585 14.421L113.506 23.1797L110.135 14.4151C110.12 14.3754 110.093 14.3412 110.058 14.317C110.023 14.2928 109.982 14.2798 109.939 14.2797L105.008 14.2792ZM98.5919 14.2666H95.7049C95.6489 14.2669 95.5952 14.2891 95.5556 14.3286C95.5159 14.368 95.4935 14.4214 95.4932 14.4772V27.0224C95.4932 27.1401 95.5891 27.2335 95.7049 27.2335H98.5919C98.7079 27.2335 98.8038 27.1401 98.8038 27.0224V14.4782C98.8039 14.4504 98.7985 14.423 98.7878 14.3973C98.7772 14.3717 98.7616 14.3484 98.7419 14.3288C98.7222 14.3092 98.6988 14.2937 98.6731 14.2831C98.6473 14.2726 98.6197 14.2665 98.5919 14.2666ZM97.165 8.55399C96.0213 8.55399 95.0941 9.47636 95.0941 10.6154C95.0941 10.8864 95.1476 11.1547 95.2517 11.4051C95.3557 11.6554 95.5083 11.8829 95.7006 12.0745C95.8929 12.2661 96.1212 12.4181 96.3725 12.5217C96.6237 12.6254 96.8931 12.6788 97.165 12.6787C98.3088 12.6787 99.2339 11.7554 99.2339 10.6154C99.2337 10.0688 99.0157 9.54455 98.6278 9.15799C98.2398 8.77143 97.7137 8.55417 97.165 8.55399Z" fill="white"/>
<path fill-rule="evenodd" clip-rule="evenodd" d="M0 18.6001C0 8.32772 8.35877 0 18.6692 0C28.981 0 37.3386 8.32842 37.3386 18.6001C37.3386 28.873 28.9808 37.2 18.6692 37.2C8.35877 37.2 0 28.873 0 18.6001ZM26.923 27.1597C27.0466 27.0699 27.1512 26.9568 27.2309 26.8267C27.3108 26.6968 27.3639 26.5527 27.3878 26.4022C27.4116 26.2517 27.4055 26.098 27.3697 25.9499C27.3339 25.8018 27.2691 25.6621 27.1791 25.539C27.0891 25.4158 26.9756 25.3115 26.8451 25.2321C21.9239 22.2357 15.8239 21.5386 8.7122 23.1576C8.56316 23.1913 8.42225 23.254 8.29756 23.342C8.17287 23.4301 8.06684 23.5418 7.98554 23.6708C7.90425 23.7997 7.84929 23.9434 7.8238 24.0935C7.79832 24.2437 7.80282 24.3974 7.83705 24.5458C7.90572 24.8455 8.09103 25.1058 8.35226 25.2695C8.6135 25.4332 8.92927 25.4868 9.23017 25.4186C15.7287 23.9394 21.2468 24.5434 25.6301 27.2111C25.7605 27.2907 25.9054 27.3439 26.0565 27.3677C26.2075 27.3915 26.3618 27.3854 26.5105 27.3497C26.6592 27.314 26.7994 27.2494 26.923 27.1597ZM27.5136 22.2403C28.1982 22.6602 29.0942 22.4446 29.5158 21.7623C29.9372 21.0814 29.7207 20.1887 29.0363 19.7688C23.2735 16.2407 14.8446 15.2478 8.06439 17.2976C7.69533 17.4097 7.38593 17.663 7.20401 18.002C7.02208 18.341 6.98247 18.7381 7.09384 19.1061C7.20646 19.474 7.46096 19.7824 7.80149 19.9635C8.14202 20.1447 8.54077 20.1838 8.91025 20.0724C14.8458 18.2772 22.4956 19.1673 27.5136 22.2403ZM8.02291 14.3376C13.7677 12.6003 23.6954 12.9277 29.7118 16.4885C30.5389 16.9793 31.6147 16.7068 32.105 15.8802C32.2223 15.6838 32.2995 15.4662 32.3323 15.24C32.3651 15.0138 32.3528 14.7834 32.296 14.562C32.2393 14.3405 32.1393 14.1324 32.0017 13.9495C31.8641 13.7667 31.6916 13.6126 31.4942 13.4963C24.5668 9.39883 13.6039 9.01354 7.00923 11.0082C6.56614 11.1424 6.19465 11.4463 5.97644 11.8533C5.75823 12.2603 5.71115 12.7369 5.84556 13.1784C6.12493 14.0975 7.1004 14.6164 8.02291 14.3376Z" fill="#1DB954"/>
</svg>
