<svg width="120" height="35" viewBox="0 0 120 35" fill="none" xmlns="http://www.w3.org/2000/svg">
<path d="M22.9322 12.6217C25.1899 14.2347 27.9558 15.1839 30.9429 15.1839V9.43867C30.3775 9.43871 29.8137 9.3798 29.2605 9.26289V13.7852C26.2736 13.7852 23.5083 12.8359 21.2498 11.223V22.9476C21.2498 28.8128 16.4929 33.5671 10.6251 33.5671C8.43584 33.5671 6.40076 32.9055 4.71045 31.7709C6.63959 33.7427 9.33045 34.9659 12.307 34.9659C18.1753 34.9659 22.9324 30.2116 22.9324 24.3463V12.6215L22.9322 12.6217ZM25.0076 6.82562C23.8205 5.53265 23.0913 3.88541 22.9322 2.13742V1.39844H21.3379C21.7392 3.68641 23.1079 5.64086 25.0076 6.82562ZM8.42178 27.2699C7.77717 26.4252 7.42875 25.3916 7.43037 24.329C7.43037 21.6466 9.60607 19.4716 12.2906 19.4716C12.7908 19.4716 13.2881 19.548 13.7648 19.6991V13.8257C13.2077 13.7493 12.6454 13.7169 12.0832 13.7287V18.3006C11.6062 18.1494 11.1087 18.0726 10.6083 18.073C7.92373 18.073 5.74803 20.2478 5.74803 22.9307C5.74803 24.8275 6.83553 26.4698 8.42178 27.2699Z" fill="#FF0050"/>
<path d="M21.2499 11.223C23.5083 12.8359 26.2737 13.7849 29.2608 13.7849V9.26266C27.624 8.91276 26.1371 8.06082 25.0076 6.82562C23.108 5.64086 21.7392 3.68617 21.338 1.39844H17.1506V24.3456C17.1413 27.0208 14.9688 29.1869 12.2904 29.1869C10.7119 29.1869 9.30939 28.4348 8.42135 27.2699C6.83557 26.4698 5.74783 24.8275 5.74783 22.9307C5.74783 20.248 7.92353 18.073 10.6081 18.073C11.1223 18.073 11.6182 18.1532 12.083 18.3006V13.7289C6.3183 13.848 1.68213 18.5559 1.68213 24.3459C1.68213 27.2362 2.83666 29.8562 4.71049 31.7709C6.45933 32.9451 8.51892 33.5705 10.6254 33.5669C16.4932 33.5669 21.2501 28.8123 21.2501 22.9473L21.2499 11.223Z" fill="white"/>
<path d="M29.2605 9.2625V8.03976C27.757 8.04206 26.2832 7.62126 25.0076 6.82547C26.1367 8.06107 27.6236 8.91293 29.2605 9.2625ZM21.338 1.39875C21.2997 1.18019 21.2703 0.960165 21.2498 0.739219V0H15.468V22.9474C15.4587 25.6221 13.287 27.7882 10.608 27.7882C9.84861 27.7894 9.09953 27.612 8.42133 27.2702C9.30961 28.4351 10.7119 29.1869 12.2904 29.1869C14.9686 29.1869 17.1412 27.0211 17.1506 24.3459V1.39852L21.338 1.39875ZM12.0832 13.7292V12.4275C11.6001 12.3614 11.113 12.3284 10.6254 12.3286C4.75711 12.3281 0 17.0827 0 22.9474C0 26.6241 1.86961 29.8645 4.7107 31.7707C2.83687 29.8563 1.68234 27.236 1.68234 24.3457C1.68234 18.5559 6.31828 13.8483 12.0832 13.7292Z" fill="#00F2EA"/>
<path d="M96.2552 28.759C100.454 28.759 103.858 25.3828 103.858 21.2182C103.858 17.0538 100.454 13.6769 96.2552 13.6769H95.1094C99.3082 13.6769 102.712 17.0538 102.712 21.2182C102.712 25.3828 99.3082 28.759 95.1094 28.759H96.2552Z" fill="#FF0050"/>
<path d="M95.0061 13.6769H93.8607C89.6621 13.6769 86.2576 17.0538 86.2576 21.2182C86.2576 25.3828 89.6621 28.759 93.8607 28.759H95.0061C90.8068 28.759 87.403 25.3828 87.403 21.2182C87.403 17.0538 90.8068 13.6769 95.0061 13.6769Z" fill="#00F2EA"/>
<path d="M62.5137 10.2687V18.8414L66.8869 14.5031H72.1978L66.6783 19.875L72.8229 28.7587H68.1371L63.8677 22.6636L62.5137 23.9041V28.6556H58.1396V10.2687H62.5137ZM109.69 10.2687V18.8414L114.064 14.5031H119.375L113.855 19.875L120 28.7592H115.313L111.043 22.6641L109.69 23.9046V28.6561H105.315V10.2687H109.69ZM95.1092 13.6769C99.308 13.6769 102.712 17.0538 102.712 21.2182C102.712 25.3828 99.308 28.759 95.1092 28.759H95.0056C90.8067 28.759 87.4029 25.3828 87.4029 21.2182C87.4029 17.0538 90.8067 13.6769 95.0056 13.6769H95.1092ZM51.0586 10.2687L49.8087 14.1942H46.1642V28.6559H41.685V14.0911H37.2078V10.2684L51.0586 10.2687ZM87.716 10.2687L86.4666 14.1942H82.822V28.6559H78.3429V14.0911H73.8656V10.2684L87.716 10.2687ZM56.2646 16.1569V28.6561H51.8921V16.1569H56.2646ZM95.0583 17.5516C93.0164 17.5516 91.3603 19.1925 91.3603 21.2182C91.3603 23.2439 93.0164 24.8855 95.0583 24.8859C97.099 24.8859 98.7549 23.2439 98.7549 21.2182C98.7549 19.1925 97.099 17.5516 95.0583 17.5516ZM54.0774 10.2687C55.286 10.2687 56.2646 11.2402 56.2646 12.4378C56.2646 13.6355 55.2867 14.6069 54.0774 14.6069C52.8696 14.6065 51.8921 13.6357 51.8921 12.4378C51.8921 11.2402 52.8696 10.2687 54.0774 10.2687Z" fill="white"/>
</svg>
