<svg width="120" height="37" viewBox="0 0 120 37" fill="none" xmlns="http://www.w3.org/2000/svg">
<path fill-rule="evenodd" clip-rule="evenodd" d="M55.2006 24.0084C55.5752 21.4127 56.1022 17.7613 56.7406 14.6152L58.9158 4.05624H65.8324V32.6289H61.5821V9.0629L61.1273 11.2744L56.8786 32.6259H52.6283L48.3083 11.2744L47.8884 9.07503V32.6304H43.6396V4.05776H50.491L52.7389 14.6516C53.6484 18.908 54.3154 24.1526 54.5988 26.399H54.8459C54.9413 25.805 55.0603 24.9808 55.2006 24.0084ZM75.2469 29.6671C76.0927 29.6671 76.9325 29.1229 77.3205 28.3392L77.316 28.3377V11.7549H82.1635V32.6274H78.371L77.9511 30.0748H77.845C76.7536 32.1166 75.1742 32.9685 73.2097 32.9685C70.3267 32.9685 69.0292 31.201 69.0292 27.3509V11.7534H73.8767V27.0811C73.8767 28.9183 74.2647 29.6671 75.2469 29.6671ZM88.9785 16.4857C88.9785 18.1198 89.9607 18.8686 91.5417 19.9933C95.3372 22.7172 97.091 24.0814 97.0956 27.4874C97.0956 31.2314 94.9174 33.1049 90.7368 33.1049C85.9636 33.1049 84.1674 30.5841 84.8025 26.2611L88.9103 26.1944C88.695 28.5105 89.5393 29.8399 90.9793 29.8399C92.2086 29.8399 92.912 29.0926 92.912 28.0012C92.912 26.6129 91.622 25.6426 89.3952 23.9677C89.3269 23.9163 89.2577 23.8643 89.1877 23.8116C86.4486 21.8001 84.7616 20.2676 84.7616 16.8965C84.7616 13.1859 86.8003 11.3821 90.943 11.3821C95.4024 11.3821 97.1244 13.4951 96.8091 18.5669L92.7331 18.7352C92.7013 15.599 92.245 14.6819 90.8732 14.6819C89.5393 14.6819 88.9785 15.3292 88.9785 16.4857ZM99.7588 11.7534H104.396L104.397 11.7549V32.6259H99.7588V11.7534ZM99.4769 6.40724C99.4769 4.1578 100.323 3.51056 102.111 3.51056C103.939 3.51056 104.747 4.26391 104.747 6.40724C104.747 8.72034 103.939 9.30088 102.113 9.30088C100.317 9.30088 99.4769 8.72337 99.4769 6.40724ZM115.738 24.8969L119.987 25.1015C120.092 28.3392 119.567 30.4477 118.2 31.6815C117.251 32.5668 115.847 32.976 113.81 32.976C108.996 32.976 107.347 30.6948 107.347 23.6115V20.683C107.347 13.8073 109.279 11.3548 113.984 11.3548C115.985 11.3548 117.424 11.7928 118.374 12.7144C119.672 13.9726 120.096 16.1871 119.813 19.4218L115.602 19.6916C115.602 15.8067 115.25 14.5486 113.916 14.5486C112.476 14.5486 112.193 15.8734 112.193 20.0645V24.1117C112.193 28.4362 112.44 29.7656 113.88 29.7656C115.318 29.7656 115.738 28.5742 115.738 24.8969Z" fill="white"/>
<circle cx="18.1895" cy="18.1895" r="13.6421" fill="white"/>
<path fill-rule="evenodd" clip-rule="evenodd" d="M18.4623 36.379C28.6588 36.379 36.9247 28.2353 36.9247 18.1895C36.9247 8.14372 28.6588 0 18.4623 0C8.26587 0 0 8.14372 0 18.1895C0 28.2353 8.26587 36.379 18.4623 36.379ZM14.7699 23.5629L24.3603 18.191L14.7699 12.816V23.5629ZM7.98486 18.1895C7.98486 12.5018 12.6673 7.87578 18.4623 7.87578C24.2572 7.87578 28.9397 12.5018 28.9397 18.1895C28.9397 23.8772 24.2572 28.5032 18.4623 28.5032C12.6673 28.5032 7.98486 23.8772 7.98486 18.1895ZM18.4623 6.67578C12.0215 6.67578 6.78486 11.8222 6.78486 18.1895C6.78486 24.5567 12.0215 29.7032 18.4623 29.7032C24.9031 29.7032 30.1397 24.5567 30.1397 18.1895C30.1397 11.8222 24.9031 6.67578 18.4623 6.67578Z" fill="#FF0000"/>
</svg>
