<!-- Generator: Adobe Illustrator 24.0.1, SVG Export Plug-In  -->
<svg version="1.1" xmlns="http://www.w3.org/2000/svg" xmlns:xlink="http://www.w3.org/1999/xlink" x="0px" y="0px"
	 width="1527.8px" height="1223.5px" viewBox="0 0 1527.8 1223.5" style="enable-background:new 0 0 1527.8 1223.5;"
	 xml:space="preserve">
<style type="text/css">
	.st0{fill:none;stroke:url(#SVGID_1_);stroke-width:30;}
	.st1{fill:none;stroke:url(#SVGID_2_);stroke-width:30;}
</style>
<defs>
</defs>
<linearGradient id="SVGID_1_" gradientUnits="userSpaceOnUse" x1="763.8995" y1="1208.5801" x2="763.8995" y2="-61.5919">
	<stop  offset="0" style="stop-color:#0066FF"/>
	<stop  offset="1" style="stop-color:#E12D6E"/>
</linearGradient>
<path class="st0" d="M1526.3,14.9c0,0-145.5,14.7-208,54c-62,39-95,93-109,163c-15.9,79.5-5,140-83,156s-166,22-241,54
	c-53.1,22.6-100,57-111,96s60.1,124.3,93,101c38-27-49-125-113-86c-49,29.9-69,85-63,123s47.6,119.5,83,100c20-11,13-98-120-102
	c-145.9-4.4-243,167-279,213s-170,231-369,323"/>
</svg>