<svg width="20" height="21" viewBox="0 0 20 21" fill="none" xmlns="http://www.w3.org/2000/svg">
<path d="M15.645 8.19246L11.8232 4.3604C11.7653 3.52959 11.9633 2.701 12.3905 1.98607C12.8176 1.27113 13.4535 0.704149 14.2125 0.361372C14.9715 0.0185942 15.8172 -0.0835358 16.636 0.0687177C17.4548 0.220971 18.2073 0.620306 18.7924 1.21301C19.3832 1.79956 19.7808 2.55251 19.932 3.37116C20.0832 4.18981 19.9809 5.03512 19.6386 5.79402C19.2964 6.55292 18.7306 7.18924 18.0169 7.61785C17.3033 8.04646 16.4757 8.24693 15.645 8.19246ZM1.44085 15.6522L10.8422 6.2611L13.7341 9.15302L4.33277 18.5543L1.45107 15.6522H1.44085ZM0.0102188 18.5441L2.16639 16.3777L3.61746 17.8288L1.45107 19.9952L0 18.5441H0.0102188ZM9.76918 15.3456L11.8129 13.3019V20.455H9.76918V15.3456Z" fill="white"/>
</svg>
