<svg width="2880" height="53" viewBox="0 0 2880 53" fill="none" xmlns="http://www.w3.org/2000/svg">
  <path fill-rule="evenodd" clip-rule="evenodd" d="M86.8848 23.703C57.1064 17.5714 28.3086 11.6417 0 7.24686V53.0082H2880V7.13596C2856.57 2.81003 2831.73 0 2805.11 0C2746.47 0 2694.75 13.3807 2643.28 26.6967C2593.29 39.6298 2543.53 52.5019 2487.91 52.9945C2437.95 53.4369 2397.46 43.1126 2351.78 31.4629C2294.22 16.7837 2228.41 0 2125 0C2028.63 0 1975.07 14.3055 1923.61 28.0514C1876.02 40.7622 1830.22 52.9945 1754.02 52.9945C1669.14 52.9945 1595.42 37.8149 1526.89 23.7039L1526.88 23.703C1497.11 17.5714 1468.31 11.6417 1440 7.24686V7.13596C1416.57 2.81003 1391.73 0 1365.11 0C1306.47 0 1254.75 13.3807 1203.28 26.6967C1153.29 39.6298 1103.53 52.5019 1047.91 52.9945C997.949 53.4369 957.465 43.1126 911.784 31.4629C854.224 16.7837 788.412 0 684.997 0C588.625 0 535.068 14.3055 483.606 28.0514C436.02 40.7622 390.224 52.9945 314.024 52.9945C229.139 52.9945 155.419 37.8149 86.8892 23.7039L86.8848 23.703Z" fill="#ffffff" />
</svg>